<?xml version="1.0" standalone="no"?>
<!DOCTYPE svg PUBLIC "-//W3C//DTD SVG 20010904//EN"
 "http://www.w3.org/TR/2001/REC-SVG-20010904/DTD/svg10.dtd">
<svg version="1.0" xmlns="http://www.w3.org/2000/svg"
 width="512.000000pt" height="512.000000pt" viewBox="0 0 512.000000 512.000000"
 preserveAspectRatio="xMidYMid meet">
<metadata>
Created by potrace 1.14, written by Peter Selinger 2001-2017
</metadata>
<g transform="translate(0.000000,512.000000) scale(0.100000,-0.100000)"
fill="#000000" stroke="none">
<path d="M53 5044 c-28 -14 -38 -29 -49 -74 -3 -13 6 -116 21 -230 2 -19 7
-60 10 -90 4 -30 8 -66 10 -80 2 -14 7 -52 10 -85 3 -33 7 -71 9 -85 3 -14 7
-52 11 -85 3 -33 8 -73 10 -90 5 -38 21 -173 35 -290 6 -49 15 -124 20 -165 6
-41 13 -100 16 -130 10 -103 12 -125 23 -205 6 -44 13 -100 16 -125 4 -46 52
-458 59 -520 4 -32 7 -56 21 -170 2 -19 11 -96 20 -170 9 -74 18 -151 21 -170
3 -19 7 -60 10 -90 3 -30 7 -66 9 -79 2 -14 7 -52 10 -85 3 -34 8 -72 10 -86
2 -14 7 -50 10 -80 3 -30 10 -89 15 -130 6 -41 12 -96 15 -123 12 -113 16
-151 36 -307 24 -197 26 -217 35 -295 3 -33 8 -68 10 -78 2 -10 6 -46 9 -80 3
-34 12 -114 20 -177 8 -63 17 -135 19 -160 4 -42 21 -187 30 -255 2 -16 7 -54
11 -83 5 -39 14 -60 37 -82 l29 -30 1919 0 c1473 0 1925 3 1945 12 33 15 61
70 64 124 1 23 4 51 6 63 2 13 7 49 10 82 4 33 8 68 10 77 1 9 6 46 10 82 3
36 8 76 10 90 2 14 7 50 10 80 3 30 8 71 10 90 3 19 7 55 10 80 13 115 17 147
20 170 4 26 11 91 20 170 20 173 26 229 40 340 3 25 8 65 10 90 3 25 7 59 10
75 2 17 7 57 10 90 3 33 8 71 10 85 2 14 6 50 10 80 3 30 8 71 10 90 6 43 16
124 20 170 4 37 12 110 20 170 3 19 7 55 10 80 8 70 16 132 20 170 3 19 7 58
10 85 10 98 16 150 20 175 2 14 7 50 10 80 3 30 8 66 10 80 5 37 18 151 20
180 1 14 5 43 8 65 4 22 9 65 12 95 4 30 8 66 10 80 3 23 14 113 20 170 5 45
15 134 19 170 3 19 7 60 11 90 3 30 8 66 10 80 2 14 6 50 9 80 3 30 8 73 11
95 11 92 15 123 20 175 3 30 8 72 11 92 10 78 14 105 19 165 3 34 7 70 9 80 4
17 13 92 21 163 2 19 7 59 10 88 8 67 -7 113 -44 135 -27 16 -191 17 -2507 17
-2224 0 -2482 -2 -2511 -16z m4841 -234 c-2 -54 -13 -169 -20 -202 -2 -13 -7
-48 -9 -78 -3 -30 -8 -71 -10 -90 -3 -19 -7 -55 -10 -80 -3 -25 -7 -58 -9 -75
-2 -16 -7 -55 -10 -85 -4 -30 -9 -71 -11 -90 -5 -41 -12 -95 -20 -165 -3 -27
-7 -66 -10 -85 -2 -19 -7 -61 -10 -92 -3 -31 -7 -65 -9 -75 -2 -10 -7 -47 -11
-83 -3 -36 -8 -76 -10 -90 -2 -14 -7 -54 -10 -90 -4 -36 -9 -74 -11 -85 -2
-11 -6 -44 -9 -75 -3 -30 -7 -68 -9 -85 -2 -16 -7 -55 -10 -85 -4 -30 -9 -71
-11 -90 -3 -19 -7 -57 -10 -85 -3 -27 -7 -66 -10 -85 -3 -19 -8 -64 -11 -100
-4 -36 -8 -72 -9 -80 -2 -13 -242 -15 -2083 -18 -1145 -1 -2082 1 -2083 5 0 5
-2 15 -3 23 -2 8 -6 44 -10 80 -7 62 -9 84 -21 175 -2 22 -11 99 -20 170 -9
72 -18 146 -20 165 -3 19 -14 116 -25 215 -11 99 -27 232 -35 295 -8 63 -17
140 -20 170 -3 30 -13 109 -22 175 -8 66 -16 136 -17 155 -3 36 -13 128 -22
190 -3 19 -7 53 -10 75 -9 85 -15 141 -19 165 -9 64 -16 141 -11 148 2 4 1054
7 2338 7 l2333 -1 -1 -44z m-286 -2379 c7 -1 11 -10 8 -23 -6 -27 -16 -107
-21 -161 -2 -21 -6 -55 -9 -75 -6 -39 -15 -119 -21 -191 -3 -24 -7 -60 -10
-80 -3 -20 -7 -56 -10 -81 -3 -25 -7 -61 -10 -80 -9 -70 -17 -131 -30 -257 -9
-81 -16 -138 -20 -163 -2 -14 -6 -54 -10 -90 -3 -36 -8 -76 -10 -90 -2 -14 -7
-50 -10 -80 -4 -30 -8 -66 -10 -80 -2 -14 -7 -50 -10 -80 -3 -30 -8 -71 -10
-90 -2 -19 -7 -57 -10 -85 -3 -27 -8 -66 -10 -85 -3 -19 -7 -60 -10 -90 -4
-30 -8 -65 -10 -78 -3 -20 -15 -125 -20 -174 -1 -10 -5 -21 -9 -25 -12 -12
-3596 -10 -3597 2 -1 6 -3 24 -5 40 -1 17 -8 64 -13 105 -6 41 -13 95 -16 120
-7 79 -25 231 -40 350 -8 63 -17 140 -20 170 -3 30 -8 71 -11 91 -3 20 -7 51
-9 70 -2 19 -6 61 -10 94 -5 52 -14 124 -30 255 -3 19 -9 76 -15 125 -6 50
-12 106 -15 125 -2 19 -7 58 -10 85 -3 28 -8 70 -11 95 -11 105 -14 132 -18
158 -3 15 -7 54 -11 87 -4 33 -10 88 -14 123 -4 34 -6 63 -5 65 2 2 4077 1
4102 -2z"/>
<path d="M492 4683 c-70 -24 -87 -99 -35 -159 l25 -29 776 -3 c427 -2 792 0
811 3 45 8 81 49 81 91 0 40 -19 84 -36 84 -7 0 -14 6 -16 12 -6 18 -1555 19
-1606 1z"/>
<path d="M2413 4693 c-36 -7 -73 -59 -73 -102 0 -44 33 -86 75 -97 42 -10 123
3 145 24 32 30 42 79 24 117 -8 18 -25 37 -37 44 -24 12 -99 20 -134 14z"/>
<path d="M3465 2285 c-16 -7 -193 -177 -392 -377 -387 -387 -396 -399 -369
-462 14 -31 743 -765 761 -767 6 0 20 -2 32 -5 12 -2 32 0 44 4 22 8 712 691
756 748 24 32 25 74 4 112 -7 13 -553 563 -703 709 -48 47 -88 59 -133 38z
m592 -787 c11 -15 -23 -53 -269 -298 l-281 -282 -283 283 -283 283 282 283
282 282 270 -267 c149 -147 276 -275 282 -284z"/>
<path d="M1701 2029 c-43 -26 -750 -735 -760 -762 -24 -62 -17 -70 363 -451
198 -199 372 -369 386 -379 28 -20 72 -22 103 -5 32 17 740 728 754 758 7 14
11 34 9 45 -3 11 -5 26 -5 33 -1 7 -169 181 -374 387 -407 406 -414 412 -476
374z m332 -518 l279 -279 -269 -268 c-148 -148 -276 -275 -285 -282 -14 -11
-51 23 -296 268 l-281 280 277 279 c152 153 282 279 287 280 6 0 135 -125 288
-278z"/>
</g>
</svg>
